#!OML:ASF I:\Actors\actors\Patient Classification 1\Patient 1\Session 1\Subject1.ASF
:FULLY-SPECIFIED
:DEGREES
2007
root 0.149662 17.1306 7.82214 61.5542 23.198 -9.00321
lowerback 35.8514 1.14312 12.0227
upperback 7.44621 5.39343 -1.45383
thorax -8.35044 2.31072 -9.855
lowerneck -2.46452 -10.6109 -10.8907
upperneck -33.0572 -10.439 23.5116
head -7.43659 -6.38859 10.6376
rclavicle -7.4743e-014 -1.92821e-014
rhumerus 93.7925 -15.075 -76.2827
rradius 23.0033
rwrist 32.1534
rhand -23.1993 -58.1493
rfingers 7.12502
rthumb 3.25061 -448.104
lclavicle -7.4743e-014 -1.92821e-014
lhumerus -21.6332 -55.8449 64.388
lradius 101.718
lwrist 16.0674
lhand -50.5453 -55.8166
lfingers 7.12502
lthumb -23.1124 -27.1828
rfemur -68.4056 9.88699 13.3545
rtibia 10.0638
rfoot -13.5536 -35.4166
rtoes 11.8061
lfemur -67.1257 1.58052 12.1709
ltibia 1.49627
lfoot -4.21204 13.8633
ltoes 22.5212
2008
root 0.159234 17.1243 7.86507 62.1757 23.1761 -8.94327
lowerback 35.7375 1.06008 12.1028
upperback 7.63461 5.27045 -1.6161
thorax -8.10575 2.28364 -10.0147
lowerneck -2.44915 -10.53 -10.8619
upperneck -33.0172 -10.3288 23.5063
head -7.4496 -6.34011 10.6348
rclavicle -4.77083e-015 -5.56597e-015
rhumerus 94.2637 -14.4465 -77.8017
rradius 22.6034
rwrist 34.0365
rhand -21.7099 -58.194
rfingers 7.12502
rthumb 4.68887 -448.122
lclavicle -4.77083e-015 -5.56597e-015
lhumerus -22.0092 -55.7341 64.2984
lradius 101.975
lwrist 16.1697
lhand -50.8159 -56.5465
lfingers 7.12502
lthumb -23.372 -27.9456
rfemur -68.5015 10.005 13.2787
rtibia 9.24129
rfoot -12.985 -35.4979
rtoes 11.3593
lfemur -67.5574 3.67356 7.03968
ltibia 1.15619
lfoot -2.09722 8.96042
ltoes 20.6099
2009
root 0.169269 17.1194 7.90665 62.7527 23.2168 -8.89679
lowerback 35.6623 0.973543 12.2371
upperback 7.80824 5.17329 -1.73415
thorax -7.88439 2.26477 -10.1654
lowerneck -2.24438 -10.439 -10.4322
upperneck -33.3729 -10.2179 23.2553
head -7.69125 -6.32514 10.5419
rclavicle 1.59028e-014 8.94531e-015
rhumerus 94.6489 -13.8233 -79.0094
rradius 22.0313
rwrist 34.7919
rhand -21.5928 -57.7554
rfingers 7.12502
rthumb 4.80196 -447.681
lclavicle 1.59028e-014 8.94531e-015
lhumerus -22.4105 -55.6453 64.2577
lradius 102.222
lwrist 16.1449
lhand -50.6805 -56.1516
lfingers 7.12502
lthumb -23.2421 -27.5342
rfemur -68.5694 10.1246 13.2782
rtibia 8.45398
rfoot -12.2754 -35.669
rtoes 10.9187
lfemur -68.2962 5.76481 1.94907
ltibia 1.01996
lfoot -0.24804 3.88947
ltoes 17.8443
2010
root 0.178016 17.115 7.9473 63.2189 23.3098 -8.85095
lowerback 35.6682 0.953757 12.4193
upperback 7.97359 5.19349 -1.75887
thorax -7.67667 2.29603 -10.2815
lowerneck -1.89095 -10.4168 -10.2214
upperneck -33.7554 -10.226 23.0564
head -7.92545 -6.3552 10.5137
rclavicle -4.29375e-014 4.83047e-014
rhumerus 94.9133 -13.4276 -79.8478
rradius 21.4753
rwrist 35.197
rhand -21.6684 -57.4111
rfingers 7.12502
rthumb 4.72895 -447.338
lclavicle -4.29375e-014 4.83047e-014
lhumerus -22.7496 -55.7418 64.3329
lradius 102.458
lwrist 16.1227
lhand -50.2093 -55.2603
lfingers 7.12502
lthumb -22.79 -26.5866
rfemur -68.506 10.2421 13.3484
rtibia 7.66157
rfoot -11.6213 -35.8748
rtoes 10.5
lfemur -69.2648 7.63334 -3.19496
ltibia 1.10282
lfoot 1.24609 -1.34614
ltoes 14.6426
2011
root 0.18485 17.1083 7.98664 63.6984 23.3354 -8.77256
lowerback 35.6054 0.947913 12.5345
upperback 8.1516 5.19534 -1.81123
thorax -7.43931 2.32376 -10.3842
lowerneck -1.78116 -10.4148 -9.94078
upperneck -33.976 -10.2772 22.7596
head -8.06719 -6.39176 10.3957
rclavicle 1.11319e-014 1.09928e-013
rhumerus 95.0712 -13.0673 -80.4261
rradius 21.0461
rwrist 35.2
rhand -21.7459 -57.2554
rfingers 7.12502
rthumb 4.65416 -447.184
lclavicle 1.11319e-014 1.09928e-013
lhumerus -23.1688 -55.8442 64.3425
lradius 102.84
lwrist 16.09
lhand -50.0136 -54.9764
lfingers 7.12502
lthumb -22.6022 -26.2796
rfemur -68.4985 10.3382 13.335
rtibia 6.95527
rfoot -11.1756 -36.0204
rtoes 10.3541
lfemur -70.3655 9.30046 -8.51572
ltibia 1.06283
lfoot 2.51018 -6.59154
ltoes 12.1031
2012
root 0.189859 17.1016 8.02548 64.2365 23.3106 -8.62711
lowerback 35.4781 0.945953 12.5489
upperback 8.32713 5.16148 -1.85808
thorax -7.2008 2.33627 -10.4149
lowerneck -1.7417 -10.4546 -10.6847
upperneck -33.747 -10.3267 23.1579
head -7.88383 -6.37342 10.6346
rclavicle -8.11041e-014 -5.12864e-014
rhumerus 95.1575 -12.6473 -80.8978
rradius 20.775
rwrist 34.938
rhand -21.692 -57.1094
rfingers 7.12502
rthumb 4.7062 -447.037
lclavicle -8.11041e-014 -5.12864e-014
lhumerus -23.6695 -55.8734 64.379
lradius 103.265
lwrist 16.2379
lhand -50.0099 -55.2984
lfingers 7.12502
lthumb -22.5986 -26.6012
rfemur -68.5679 10.3862 13.2392
rtibia 6.31073
rfoot -10.6557 -36.1692
rtoes 10.1446
lfemur -71.5535 10.811 -13.9804
ltibia 0.799595
lfoot 3.65296 -11.8903
ltoes 9.62559
2013
root 0.194806 17.0942 8.06499 64.7388 23.3086 -8.47335
lowerback 35.8585 0.723171 12.4611
upperback 8.18687 4.90661 -1.9598
thorax -7.55818 2.18478 -10.42
lowerneck -1.8333 -10.3831 -11.427
upperneck -33.2524 -10.2113 23.5822
head -7.61419 -6.26614 10.8484
rclavicle 0 -8.78628e-014
rhumerus 94.9692 -11.6599 -81.6675
rradius 20.5803
rwrist 34.7453
rhand -21.3525 -56.8212
rfingers 7.12502
rthumb 5.03399 -446.741
lclavicle 0 -8.78628e-014
lhumerus -25.2286 -55.476 65.1502
lradius 103.641
lwrist 16.5435
lhand -49.8057 -55.423
lfingers 7.12502
lthumb -22.4026 -26.7021
rfemur -68.6033 10.4258 13.1704
rtibia 5.69907
rfoot -10.0407 -36.3514
rtoes 9.64296
lfemur -72.888 12.2007 -19.494
ltibia 0.602186
lfoot 4.51616 -17.3495
ltoes 6.6286
2014
root 0.201935 17.0862 8.10277 65.2191 23.3274 -8.32493
lowerback 37.0628 0.480805 11.9427
upperback 7.49512 4.63457 -1.85588
thorax -8.88432 1.92208 -10.0296
lowerneck -2.09271 -10.1686 -11.8871
upperneck -32.4362 -9.983 23.5363
head -7.30113 -6.07009 10.8005
rclavicle 7.79236e-014 2.38542e-014
rhumerus 94.1429 -10.2214 -81.9357
rradius 20.4014
rwrist 34.4187
rhand -20.8191 -56.502
rfingers 7.12502
rthumb 5.54901 -446.409
lclavicle 7.79236e-014 2.38542e-014
lhumerus -28.3125 -54.6949 67.3806
lradius 104.064
lwrist 16.7233
lhand -49.4982 -55.0387
lfingers 7.12502
lthumb -22.1074 -26.2826
rfemur -68.6494 10.4328 13.1153
rtibia 5.16138
rfoot -9.65238 -36.5032
rtoes 9.45863
lfemur -74.3759 13.4511 -25.0656
ltibia 0.449021
lfoot 5.05772 -22.8844
ltoes 3.4428
2015
root 0.209952 17.0784 8.13731 65.7378 23.3773 -8.13492
lowerback 35.9001 0.507533 12.6975
upperback 8.37133 4.69478 -2.15279
thorax -7.38334 2.11242 -10.6727
lowerneck -1.56173 -10.2841 -11.4314
upperneck -33.6238 -10.0418 23.6709
head -7.81734 -6.20972 10.9638
rclavicle -4.92986e-014 1.86858e-014
rhumerus 94.8033 -10.8003 -82.285
rradius 20.2628
rwrist 34.1423
rhand -20.2407 -56.2199
rfingers 7.12502
rthumb 6.10746 -446.112
lclavicle -4.92986e-014 1.86858e-014
lhumerus -26.0923 -54.8909 65.5213
lradius 104.182
lwrist 17.1538
lhand -49.5833 -54.8473
lfingers 7.12502
lthumb -22.1891 -26.1008
rfemur -68.7405 10.3687 13.0618
rtibia 4.66019
rfoot -9.40955 -36.6551
rtoes 9.54871
lfemur -75.9881 14.4824 -30.7113
ltibia 0.252037
lfoot 5.44772 -28.4141
ltoes 0.747635
2016
root 0.214082 17.0702 8.17821 66.5168 23.0786 -7.76829
lowerback 35.1847 0.899859 12.3993
upperback 8.76811 4.9564 -2.07931
thorax -6.65377 2.30992 -10.4738
lowerneck -1.19879 -10.39 -11.1025
upperneck -34.2813 -10.2351 23.388
head -8.13346 -6.34079 10.9128
rclavicle -1.27222e-014 -1.86858e-014
rhumerus 94.8414 -11.227 -81.6455
rradius 20.1691
rwrist 33.3179
rhand -19.8068 -55.7552
rfingers 7.12502
rthumb 6.52635 -445.635
lclavicle -1.27222e-014 -1.86858e-014
lhumerus -25.254 -55.0501 65.3404
lradius 104.221
lwrist 16.9931
lhand -50.2795 -55.7301
lfingers 7.12502
lthumb -22.8573 -27.0647
rfemur -69.0779 10.219 12.5657
rtibia 4.17547
rfoot -9.04699 -36.8382
rtoes 9.54265
lfemur -77.7465 15.2485 -36.858
ltibia -0.0601231
lfoot 5.79303 -33.9129
ltoes -1.19947
2017
root 0.216618 17.0616 8.22498 67.5263 22.3854 -7.25291
lowerback 34.6848 1.25227 11.5246
upperback 8.92394 5.01499 -2.12839
thorax -6.4925 2.35465 -10.1068
lowerneck -0.970417 -10.3907 -10.7884
upperneck -34.5907 -10.2776 23.1332
head -8.32986 -6.38672 10.8274
rclavicle -8.74653e-014 -1.27222e-014
rhumerus 94.6047 -11.2015 -81.2305
rradius 20.1808
rwrist 32.7114
rhand -19.773 -55.3176
rfingers 7.12502
rthumb 6.55892 -445.196
lclavicle -8.74653e-014 -1.27222e-014
lhumerus -25.2661 -54.7453 65.684
lradius 104.507
lwrist 17.6902
lhand -49.6825 -54.7505
lfingers 7.12502
lthumb -22.2843 -26.0154
rfemur -69.6512 9.97061 11.5859
rtibia 3.7227
rfoot -8.63542 -37.0173
rtoes 9.63484
lfemur -79.5456 15.7383 -43.5237
ltibia -0.560988
lfoot 5.9402 -39.4735
ltoes -3.23376
